# xmcd
#
# Track frame offsets:
#	150
#	13810
#	25074
#	38310
#	52838
#	64573
#	76934
#	91034
#	99871
#	112990
#	126048
#	136089
#	148048
#	157635
#	169446
#	179586
#	195633
#	205203
#	215911
#	228913
#	238691
#	252300
#
# Disc length: 3508 seconds
#
# Revision: 1
# Processed by: cddbd v1.5.2PL0 Copyright (c) Steve Scherf et al.
# Submitted via: audiograbber 1.83.01
#
DISCID=180db216
DTITLE=Ronnie Milsap - Kentucky Woman
DYEAR=2003
DGENRE=Country
TTITLE0=Kentucky Woman
TTITLE1=Never Had It So Good
TTITLE2=Traces
TTITLE3=Denver
TTITLE4=End Of The World
TTITLE5=Let's Go Get Stoned
TTITLE6=I Can't Tell A Lie
TTITLE7=Ain't No Soul (In These Old Shoes)
TTITLE8=Love Will Never Pass Us By
TTITLE9=Thousand Miles From Nowhere
TTITLE10=Don't Try It Again
TTITLE11=House Of The Rising Sun
TTITLE12=Nothing's As Good As It Used To Be
TTITLE13=Didn't We
TTITLE14=Mr Mailman
TTITLE15=If You Go Away
TTITLE16=You're An Exception To The Rule
TTITLE17=What's Your Game
TTITLE18=I Just Don't Know What To Do With Myself
TTITLE19=Need To Belong
TTITLE20=Do What You Gotta Do
TTITLE21=When It Comes To My Baby
EXTD=
EXTT0=
EXTT1=
EXTT2=
EXTT3=
EXTT4=
EXTT5=
EXTT6=
EXTT7=
EXTT8=
EXTT9=
EXTT10=
EXTT11=
EXTT12=
EXTT13=
EXTT14=
EXTT15=
EXTT16=
EXTT17=
EXTT18=
EXTT19=
EXTT20=
EXTT21=
PLAYORDER=
